<svg width="24" height="29" viewBox="0 0 24 29" fill="none" xmlns="http://www.w3.org/2000/svg">
<path d="M14.3387 0.357574C14.1457 0.198769 13.9171 0.0882951 13.6722 0.0354472C13.4272 -0.0174007 13.173 -0.0110764 12.9311 0.053888C12.6891 0.118852 12.4664 0.240556 12.2816 0.40876C12.0969 0.576963 11.9556 0.786745 11.8696 1.02046L9.27 8.09076L6.70174 5.6166C6.54303 5.46363 6.35345 5.34579 6.14551 5.27085C5.93756 5.19591 5.71598 5.16557 5.49536 5.18184C5.27474 5.19811 5.0601 5.26062 4.8656 5.36524C4.6711 5.46986 4.50115 5.61422 4.36696 5.7888C1.47 9.55635 0 13.3589 0 17.0889C0 20.2479 1.26428 23.2775 3.51472 25.5113C5.76515 27.7451 8.8174 29 12 29C15.1826 29 18.2348 27.7451 20.4853 25.5113C22.7357 23.2775 24 20.2479 24 17.0889C24 9.17182 17.2435 2.75016 14.3387 0.357574ZM12 25.8927C9.64839 25.8903 7.39378 24.962 5.73094 23.3115C4.0681 21.661 3.13285 19.4231 3.13043 17.0889C3.13043 14.5072 4.04348 11.8298 5.83174 9.10838L8.82261 11.9891C9.00999 12.1695 9.23988 12.3006 9.49134 12.3704C9.7428 12.4401 10.0078 12.4463 10.2623 12.3884C10.5168 12.3305 10.7527 12.2103 10.9484 12.0388C11.1442 11.8673 11.2936 11.6499 11.383 11.4065L14.0191 4.23388C16.877 6.93978 20.8696 11.6887 20.8696 17.0889C20.8671 19.4231 19.9319 21.661 18.2691 23.3115C16.6062 24.962 14.3516 25.8903 12 25.8927Z" fill="#E63000"/>
</svg>
